<svg width="16" height="12" viewBox="0 0 16 12" fill="none" xmlns="http://www.w3.org/2000/svg">
<path fill-rule="evenodd" clip-rule="evenodd" d="M5.44202 1.5H12.5C12.8978 1.5 13.2794 1.65804 13.5607 1.93934C13.842 2.22065 14 2.60218 14 3V9C14 9.39783 13.842 9.77936 13.5607 10.0607C13.2794 10.342 12.8978 10.5 12.5 10.5H5.44202C5.21711 10.5 4.99509 10.4493 4.7924 10.3519C4.5897 10.2544 4.41151 10.1126 4.27102 9.937L1.79602 6.844C1.60419 6.60452 1.49966 6.30684 1.49966 6C1.49966 5.69316 1.60419 5.39548 1.79602 5.156L4.27102 2.063C4.4113 1.88764 4.58917 1.74601 4.7915 1.64856C4.99382 1.55112 5.21545 1.50035 5.44002 1.5M3.09702 1.126C3.37832 0.774348 3.73518 0.490535 4.14113 0.295611C4.54708 0.100686 4.9917 -0.000348059 5.44202 9.00875e-07H12.5C13.2957 9.00875e-07 14.0587 0.316072 14.6213 0.878681C15.1839 1.44129 15.5 2.20435 15.5 3V9C15.5 9.79565 15.1839 10.5587 14.6213 11.1213C14.0587 11.6839 13.2957 12 12.5 12H5.44202C4.99204 12 4.5478 11.8989 4.14223 11.704C3.73665 11.509 3.38011 11.2254 3.09902 10.874L0.625019 7.781C0.220435 7.27556 0 6.64743 0 6C0 5.35258 0.220435 4.72444 0.625019 4.219L3.09702 1.126ZM7.28002 3.47C7.13784 3.33752 6.9498 3.2654 6.7555 3.26883C6.5612 3.27225 6.37581 3.35097 6.2384 3.48838C6.10098 3.62579 6.02227 3.81118 6.01884 4.00548C6.01542 4.19978 6.08754 4.38783 6.22002 4.53L7.69002 6L6.22002 7.47C6.14633 7.53866 6.08723 7.62146 6.04624 7.71346C6.00525 7.80546 5.9832 7.90478 5.98143 8.00548C5.97965 8.10618 5.99818 8.20621 6.0359 8.2996C6.07362 8.39299 6.12976 8.47782 6.20098 8.54904C6.2722 8.62026 6.35703 8.6764 6.45042 8.71412C6.54381 8.75184 6.64384 8.77037 6.74454 8.76859C6.84524 8.76682 6.94456 8.74477 7.03656 8.70378C7.12856 8.66279 7.21136 8.60369 7.28002 8.53L8.75002 7.06L10.22 8.53C10.2887 8.60369 10.3715 8.66279 10.4635 8.70378C10.5555 8.74477 10.6548 8.76682 10.7555 8.76859C10.8562 8.77037 10.9562 8.75184 11.0496 8.71412C11.143 8.6764 11.2278 8.62026 11.2991 8.54904C11.3703 8.47782 11.4264 8.39299 11.4641 8.2996C11.5019 8.20621 11.5204 8.10618 11.5186 8.00548C11.5168 7.90478 11.4948 7.80546 11.4538 7.71346C11.4128 7.62146 11.3537 7.53866 11.28 7.47L9.81002 6L11.28 4.53C11.4125 4.38783 11.4846 4.19978 11.4812 4.00548C11.4778 3.81118 11.3991 3.62579 11.2616 3.48838C11.1242 3.35097 10.9388 3.27225 10.7445 3.26883C10.5502 3.2654 10.3622 3.33752 10.22 3.47L8.75002 4.94L7.28002 3.47Z" fill="black"/>
</svg>
