<svg width="14" height="14" viewBox="0 0 14 14" fill="none" xmlns="http://www.w3.org/2000/svg">
<path d="M6.9925 4.5C7.52293 4.5 8.03164 4.28929 8.40671 3.91421C8.78179 3.53914 8.9925 3.03043 8.9925 2.5C8.9925 1.96957 8.78179 1.46086 8.40671 1.08579C8.03164 0.710714 7.52293 0.5 6.9925 0.5C6.46207 0.5 5.95336 0.710714 5.57829 1.08579C5.20321 1.46086 4.9925 1.96957 4.9925 2.5C4.9925 3.03043 5.20321 3.53914 5.57829 3.91421C5.95336 4.28929 6.46207 4.5 6.9925 4.5ZM6.9925 14C7.52293 14 8.03164 13.7893 8.40671 13.4142C8.78179 13.0391 8.9925 12.5304 8.9925 12C8.9925 11.4696 8.78179 10.9609 8.40671 10.5858C8.03164 10.2107 7.52293 10 6.9925 10C6.46207 10 5.95336 10.2107 5.57829 10.5858C5.20321 10.9609 4.9925 11.4696 4.9925 12C4.9925 12.5304 5.20321 13.0391 5.57829 13.4142C5.95336 13.7893 6.46207 14 6.9925 14ZM1.53 5.72C0.69 5.72 0 6.41 0 7.25C0 8.095 0.69 8.785 1.53 8.78H12.455C13.295 8.78 13.985 8.095 13.985 7.25C13.985 6.41 13.3 5.72 12.455 5.72H1.53Z" fill="black"/>
</svg>
