<svg width="16" height="10" viewBox="0 0 16 10" fill="none" xmlns="http://www.w3.org/2000/svg">
<path d="M1.5 10C1.08334 10 0.729336 9.85433 0.438002 9.563C0.146669 9.27167 0.000668939 8.91733 2.27272e-06 8.5C-0.000664394 8.08267 0.145336 7.72867 0.438002 7.438C0.730669 7.14733 1.08467 7.00133 1.5 7H14.5C14.9167 7 15.271 7.146 15.563 7.438C15.855 7.73 16.0007 8.084 16 8.5C15.9993 8.916 15.8537 9.27033 15.563 9.563C15.2723 9.85567 14.918 10.0013 14.5 10H1.5ZM1.5 3C1.08334 3 0.729336 2.85433 0.438002 2.563C0.146669 2.27167 0.000668939 1.91733 2.27272e-06 1.5C-0.000664394 1.08267 0.145336 0.728667 0.438002 0.438C0.730669 0.147334 1.08467 0.00133333 1.5 0H14.5C14.9167 0 15.271 0.146 15.563 0.438C15.855 0.73 16.0007 1.084 16 1.5C15.9993 1.916 15.8537 2.27033 15.563 2.563C15.2723 2.85567 14.918 3.00133 14.5 3H1.5Z" fill="black"/>
</svg>
