<svg width="14" height="14" viewBox="0 0 14 14" fill="none" xmlns="http://www.w3.org/2000/svg">
<path d="M2.61131 0.44669C2.32368 0.160597 1.93449 0 1.52881 0C1.12313 0 0.733937 0.160597 0.446309 0.44669C0.160392 0.735424 0 1.12535 0 1.53169C0 1.93803 0.160392 2.32796 0.446309 2.61669L4.81981 6.98869L0.451309 11.3617C0.165216 11.6493 0.004619 12.0385 0.004619 12.4442C0.004619 12.8499 0.165216 13.2391 0.451309 13.5267C0.738938 13.8128 1.12812 13.9734 1.53381 13.9734C1.93949 13.9734 2.32868 13.8128 2.61631 13.5267L6.98631 9.15419L11.3563 13.5217C11.6439 13.8078 12.0331 13.9684 12.4388 13.9684C12.8445 13.9684 13.2337 13.8078 13.5213 13.5217C13.8074 13.2341 13.968 12.8449 13.968 12.4392C13.968 12.0335 13.8074 11.6443 13.5213 11.3567L9.15231 6.98769L13.5258 2.61169C13.8119 2.32406 13.9725 1.93487 13.9725 1.52919C13.9725 1.12351 13.8119 0.734318 13.5258 0.44669C12.9258 -0.14831 11.9508 -0.14831 11.3558 0.44669L6.98581 4.82119L2.61131 0.44669Z" fill="black"/>
</svg>
