<svg width="52" height="52" viewBox="0 0 52 52" fill="none" xmlns="http://www.w3.org/2000/svg">
<mask id="path-1-outside-1_537_3" maskUnits="userSpaceOnUse" x="2" y="6" width="45" height="39" fill="black">
<rect fill="white" x="2" y="6" width="45" height="39"/>
<path d="M4.0483 25.3409C4.0483 21.9403 4.48911 18.8142 5.37074 15.9624C6.26136 13.1016 7.52983 10.4702 9.17614 8.06818H11.983C11.3352 8.9588 10.728 10.0563 10.1612 11.3608C9.60346 12.6562 9.11316 14.0821 8.69034 15.6385C8.26752 17.1858 7.93466 18.7872 7.69176 20.4425C7.45786 22.0978 7.34091 23.7306 7.34091 25.3409C7.34091 27.482 7.54782 29.6546 7.96165 31.8587C8.37547 34.0627 8.93324 36.1094 9.63494 37.9986C10.3366 39.8878 11.1193 41.4261 11.983 42.6136H9.17614C7.52983 40.2116 6.26136 37.5848 5.37074 34.733C4.48911 31.8722 4.0483 28.7415 4.0483 25.3409ZM44.8585 25.3409C44.8585 28.7415 44.4132 31.8722 43.5226 34.733C42.6409 37.5848 41.377 40.2116 39.7306 42.6136H36.9238C37.5716 41.723 38.1743 40.6255 38.7321 39.321C39.2988 38.0256 39.7936 36.6042 40.2164 35.0568C40.6393 33.5005 40.9676 31.8946 41.2015 30.2393C41.4444 28.575 41.5659 26.9422 41.5659 25.3409C41.5659 23.1998 41.359 21.0272 40.9451 18.8232C40.5313 16.6191 39.9735 14.5724 39.2718 12.6832C38.5701 10.794 37.7875 9.25568 36.9238 8.06818H39.7306C41.377 10.4702 42.6409 13.1016 43.5226 15.9624C44.4132 18.8142 44.8585 21.9403 44.8585 25.3409Z"/>
</mask>
<path d="M4.0483 25.3409C4.0483 21.9403 4.48911 18.8142 5.37074 15.9624C6.26136 13.1016 7.52983 10.4702 9.17614 8.06818H11.983C11.3352 8.9588 10.728 10.0563 10.1612 11.3608C9.60346 12.6562 9.11316 14.0821 8.69034 15.6385C8.26752 17.1858 7.93466 18.7872 7.69176 20.4425C7.45786 22.0978 7.34091 23.7306 7.34091 25.3409C7.34091 27.482 7.54782 29.6546 7.96165 31.8587C8.37547 34.0627 8.93324 36.1094 9.63494 37.9986C10.3366 39.8878 11.1193 41.4261 11.983 42.6136H9.17614C7.52983 40.2116 6.26136 37.5848 5.37074 34.733C4.48911 31.8722 4.0483 28.7415 4.0483 25.3409ZM44.8585 25.3409C44.8585 28.7415 44.4132 31.8722 43.5226 34.733C42.6409 37.5848 41.377 40.2116 39.7306 42.6136H36.9238C37.5716 41.723 38.1743 40.6255 38.7321 39.321C39.2988 38.0256 39.7936 36.6042 40.2164 35.0568C40.6393 33.5005 40.9676 31.8946 41.2015 30.2393C41.4444 28.575 41.5659 26.9422 41.5659 25.3409C41.5659 23.1998 41.359 21.0272 40.9451 18.8232C40.5313 16.6191 39.9735 14.5724 39.2718 12.6832C38.5701 10.794 37.7875 9.25568 36.9238 8.06818H39.7306C41.377 10.4702 42.6409 13.1016 43.5226 15.9624C44.4132 18.8142 44.8585 21.9403 44.8585 25.3409Z" fill="black"/>
<path d="M5.37074 15.9624L3.46114 15.3679L3.45996 15.3716L5.37074 15.9624ZM9.17614 8.06818V6.06818H8.12225L7.52643 6.93748L9.17614 8.06818ZM11.983 8.06818L13.6004 9.24452L15.9105 6.06818H11.983V8.06818ZM10.1612 11.3608L8.32687 10.5638L8.32425 10.5699L10.1612 11.3608ZM8.69034 15.6385L10.6196 16.1657L10.6204 16.1628L8.69034 15.6385ZM7.69176 20.4425L5.71292 20.1521L5.71143 20.1626L7.69176 20.4425ZM7.96165 31.8587L5.99599 32.2277L5.99599 32.2277L7.96165 31.8587ZM9.63494 37.9986L11.5098 37.3022L11.5098 37.3022L9.63494 37.9986ZM11.983 42.6136V44.6136H15.9105L13.6004 41.4373L11.983 42.6136ZM9.17614 42.6136L7.52643 43.7443L8.12225 44.6136H9.17614V42.6136ZM5.37074 34.733L3.45943 35.322L3.46167 35.3292L5.37074 34.733ZM6.0483 25.3409C6.0483 22.1132 6.46661 19.189 7.28151 16.5531L3.45996 15.3716C2.51161 18.4393 2.0483 21.7675 2.0483 25.3409H6.0483ZM7.28034 16.5569C8.11333 13.8812 9.2957 11.4314 10.8258 9.19888L7.52643 6.93748C5.76395 9.50897 4.4094 12.3219 3.46114 15.3679L7.28034 16.5569ZM9.17614 10.0682H11.983V6.06818H9.17614V10.0682ZM10.3655 6.89184C9.61117 7.92901 8.93597 9.16194 8.32688 10.5638L11.9956 12.1578C12.52 10.9507 13.0593 9.9886 13.6004 9.24452L10.3655 6.89184ZM8.32425 10.5699C7.72438 11.9631 7.2044 13.4795 6.7603 15.1141L10.6204 16.1628C11.0219 14.6848 11.4825 13.3494 11.9982 12.1517L8.32425 10.5699ZM6.76107 15.1113C6.31608 16.7398 5.96707 18.4203 5.71295 20.1521L9.67057 20.7328C9.90225 19.154 10.219 17.6319 10.6196 16.1657L6.76107 15.1113ZM5.71143 20.1626C5.46493 21.9071 5.34091 23.6335 5.34091 25.3409H9.34091C9.34091 23.8277 9.45079 22.2884 9.67209 20.7223L5.71143 20.1626ZM5.34091 25.3409C5.34091 27.6115 5.5604 29.9077 5.99599 32.2277L9.9273 31.4896C9.53525 29.4015 9.34091 27.3525 9.34091 25.3409H5.34091ZM5.99599 32.2277C6.42844 34.531 7.01477 36.6883 7.76009 38.695L11.5098 37.3022C10.8517 35.5304 10.3225 33.5945 9.9273 31.4896L5.99599 32.2277ZM7.76009 38.695C8.5035 40.6964 9.36309 42.4117 10.3655 43.79L13.6004 41.4373C12.8755 40.4406 12.1698 39.0791 11.5098 37.3022L7.76009 38.695ZM11.983 40.6136H9.17614V44.6136H11.983V40.6136ZM10.8258 41.4829C9.29503 39.2495 8.11263 36.8035 7.27981 34.1367L3.46167 35.3292C4.4101 38.3661 5.76463 41.1738 7.52643 43.7443L10.8258 41.4829ZM7.28204 34.1439C6.46658 31.4979 6.0483 28.5685 6.0483 25.3409H2.0483C2.0483 28.9145 2.51164 32.2464 3.45944 35.322L7.28204 34.1439ZM43.5226 34.733L41.6129 34.1385L41.6118 34.1422L43.5226 34.733ZM39.7306 42.6136V44.6136H40.7845L41.3804 43.7443L39.7306 42.6136ZM36.9238 42.6136L35.3064 41.4373L32.9963 44.6136H36.9238V42.6136ZM38.7321 39.321L36.8998 38.5194L36.8964 38.527L36.8931 38.5347L38.7321 39.321ZM40.2164 35.0568L42.1457 35.584L42.1465 35.5812L40.2164 35.0568ZM41.2015 30.2393L39.2225 29.9505L39.2212 29.9595L41.2015 30.2393ZM40.9451 18.8232L42.9108 18.4541L42.9108 18.4541L40.9451 18.8232ZM39.2718 12.6832L37.397 13.3796L37.397 13.3796L39.2718 12.6832ZM36.9238 8.06818V6.06818H32.9963L35.3064 9.24452L36.9238 8.06818ZM39.7306 8.06818L41.3804 6.93748L40.7845 6.06818H39.7306V8.06818ZM43.5226 15.9624L41.6112 16.5514L41.6135 16.5586L43.5226 15.9624ZM42.8585 25.3409C42.8585 28.5666 42.4362 31.4941 41.613 34.1385L45.4322 35.3275C46.3902 32.2502 46.8585 28.9163 46.8585 25.3409H42.8585ZM41.6118 34.1422C40.788 36.8068 39.6107 39.2509 38.0809 41.4829L41.3804 43.7443C43.1432 41.1723 44.4938 38.3627 45.4333 35.3237L41.6118 34.1422ZM39.7306 40.6136H36.9238V44.6136H39.7306V40.6136ZM38.5413 43.79C39.2983 42.7492 39.9702 41.5124 40.571 40.1073L36.8931 38.5347C36.3784 39.7385 35.8448 40.6969 35.3064 41.4373L38.5413 43.79ZM40.5644 40.1227C41.1749 38.7273 41.7006 37.2128 42.1457 35.584L38.2872 34.5296C37.8866 35.9955 37.4228 37.3238 36.8998 38.5194L40.5644 40.1227ZM42.1465 35.5812C42.5919 33.9416 42.9367 32.254 43.1819 30.5192L39.2212 29.9595C38.9985 31.5353 38.6866 33.0594 38.2864 34.5325L42.1465 35.5812ZM43.1806 30.5282C43.4367 28.773 43.5659 27.0436 43.5659 25.3409H39.5659C39.5659 26.8409 39.4521 28.3771 39.2225 29.9505L43.1806 30.5282ZM43.5659 25.3409C43.5659 23.0703 43.3464 20.7741 42.9108 18.4541L38.9795 19.1922C39.3715 21.2803 39.5659 23.3293 39.5659 25.3409H43.5659ZM42.9108 18.4541C42.4783 16.1508 41.892 13.9935 41.1467 11.9869L37.397 13.3796C38.0551 15.1514 38.5843 17.0873 38.9795 19.1922L42.9108 18.4541ZM41.1467 11.9869C40.4033 9.98539 39.5437 8.27012 38.5413 6.89184L35.3064 9.24452C36.0312 10.2412 36.737 11.6027 37.397 13.3796L41.1467 11.9869ZM36.9238 10.0682H39.7306V6.06818H36.9238V10.0682ZM38.0809 9.19888C39.6101 11.4299 40.7873 13.8778 41.6113 16.5514L45.4338 15.3733C44.4945 12.3253 43.1438 9.51045 41.3804 6.93748L38.0809 9.19888ZM41.6135 16.5586C42.4362 19.1928 42.8585 22.1151 42.8585 25.3409H46.8585C46.8585 21.7656 46.3902 18.4355 45.4316 15.3662L41.6135 16.5586Z" fill="black" mask="url(#path-1-outside-1_537_3)"/>
</svg>
