<svg width="11" height="26" viewBox="0 0 11 26" fill="none" xmlns="http://www.w3.org/2000/svg">
<path d="M11 26C9.45614 25.8258 8.01913 25.3742 6.68898 24.6451C5.35882 23.9161 4.19564 22.9688 3.19945 21.8034C2.20325 20.638 1.42116 19.304 0.853186 17.8015C0.285208 16.299 0.000812558 14.6985 0 13C0 9.58124 1.06161 6.64154 3.18482 4.1809C5.30803 1.72027 7.91309 0.326633 11 0V2.64573C8.58264 2.97236 6.55125 4.11035 4.90582 6.0597C3.26039 8.00905 2.43767 10.3225 2.43767 13C2.43767 15.6775 3.26039 17.9914 4.90582 19.9416C6.55125 21.8918 8.58264 23.0294 11 23.3543V26Z" fill="black"/>
</svg>
