<svg width="11" height="26" viewBox="0 0 11 26" fill="none" xmlns="http://www.w3.org/2000/svg">
<path d="M-4.38061e-07 -1.15915e-06C1.54386 0.174203 2.98087 0.625829 4.31102 1.35487C5.64118 2.08392 6.80436 3.03115 7.80055 4.19658C8.79675 5.36201 9.57884 6.69598 10.1468 8.19849C10.7148 9.70101 10.9992 11.3015 11 13C11 16.4188 9.93839 19.3585 7.81518 21.8191C5.69197 24.2797 3.08691 25.6734 -4.38061e-07 26V23.3543C2.41736 23.0276 4.44875 21.8896 6.09418 19.9403C7.73961 17.991 8.56233 15.6775 8.56233 13C8.56233 10.3225 7.73961 8.00861 6.09418 6.05839C4.44875 4.10818 2.41736 2.97062 -4.38061e-07 2.64573V-1.15915e-06Z" fill="black"/>
</svg>
