<svg width="6" height="6" viewBox="0 0 6 6" fill="none" xmlns="http://www.w3.org/2000/svg">
<path d="M2.99991 5.00934e-09C3.5877 -3.39561e-05 4.16255 0.172614 4.65306 0.4965C5.14357 0.820385 5.52813 1.28124 5.75897 1.82182C5.98981 2.3624 6.05676 2.95888 5.95151 3.53719C5.84626 4.11549 5.57345 4.65014 5.16695 5.07471C4.76045 5.49929 4.23818 5.79509 3.66501 5.92538C3.09184 6.05567 2.49303 6.0147 1.94294 5.80756C1.39286 5.60042 0.915745 5.23624 0.570858 4.76026C0.225971 4.28427 0.02851 3.71745 0.00299998 3.1302L0 3L0.00299998 2.8698C0.0365506 2.09745 0.366954 1.36787 0.925307 0.833196C1.48366 0.298525 2.22686 4.46705e-05 2.99991 5.00934e-09Z" fill="black"/>
</svg>
